<svg width="946" height="151" viewBox="0 0 946 151" fill="none" xmlns="http://www.w3.org/2000/svg">
<path fill-rule="evenodd" clip-rule="evenodd" d="M39.3751 105.999C36.1667 105.999 34.8751 108.2 34.8751 109.374C34.8751 110.549 36.1667 112.749 39.3751 112.749H146.251C156.813 112.749 165.376 121.312 165.376 131.874C165.376 141.675 158.003 149.755 148.501 150.868V150.999L66.9377 150.437L55.6877 135.249H146.251C148.115 135.249 149.626 133.738 149.626 131.874C149.626 130.01 148.115 128.499 146.251 128.499H39.3751C28.9144 128.499 19.125 120.626 19.125 109.374C19.125 98.1221 28.9144 90.249 39.3751 90.249H134.719L146.251 105.999H39.3751Z" fill="#1E90FF"/>
<path d="M19.1251 60.9991C17.2611 60.9991 15.7501 62.5101 15.7501 64.3741C15.7501 66.2381 17.2611 67.7491 19.1251 67.7491H178.876C189.438 67.7491 198.001 76.3117 198.001 86.8742C198.001 97.4367 189.438 105.999 178.876 105.999H154.688L142.876 90.2492H178.876C180.74 90.2492 182.251 88.7382 182.251 86.8742C182.251 85.0102 180.74 83.4992 178.876 83.4992H19.1251C8.56259 83.4992 0 74.9366 0 64.3741C0 53.8116 8.56259 45.249 19.1251 45.249H41.6252L52.8752 60.9991H19.1251Z" fill="white"/>
<path fill-rule="evenodd" clip-rule="evenodd" d="M51.7505 15.9991C49.8865 15.9991 48.3754 17.5101 48.3754 19.3741C48.3754 21.2381 49.8865 22.7491 51.7505 22.7491H159.751C170.313 22.7491 178.876 31.3117 178.876 41.8742C178.876 52.059 170.915 60.3844 160.876 60.9668V60.9993H61.313L50.0629 45.2492H159.751C161.615 45.2492 163.126 43.7382 163.126 41.8742C163.126 40.0102 161.615 38.4992 159.751 38.4992H51.7505C41.188 38.4992 32.6254 29.9366 32.6254 19.3741C32.6254 8.81162 41.188 0.249023 51.7505 0.249023H132.751L144.001 15.9991H51.7505Z" fill="#1E90FF"/>
<path d="M273.868 107.356C264.642 107.356 257.066 105.181 251.14 100.83C245.215 96.4045 242.027 90.1038 241.577 81.9279H265.092C265.317 84.7032 266.142 86.7284 267.567 88.0036C268.992 89.2787 270.83 89.9163 273.08 89.9163C275.106 89.9163 276.756 89.4287 278.031 88.4536C279.381 87.4035 280.056 85.9783 280.056 84.1781C280.056 81.8529 278.968 80.0526 276.793 78.7775C274.618 77.5024 271.093 76.0772 266.217 74.502C261.041 72.7768 256.841 71.1266 253.616 69.5514C250.465 67.9012 247.69 65.5385 245.29 62.4631C242.964 59.3127 241.802 55.2248 241.802 50.1992C241.802 45.0986 243.077 40.7481 245.627 37.1477C248.177 33.4723 251.703 30.6969 256.203 28.8217C260.704 26.9465 265.804 26.0089 271.505 26.0089C280.731 26.0089 288.082 28.1842 293.558 32.5347C299.108 36.8102 302.071 42.8484 302.446 50.6493H278.481C278.406 48.249 277.656 46.4488 276.231 45.2486C274.881 44.0485 273.118 43.4484 270.943 43.4484C269.292 43.4484 267.942 43.936 266.892 44.9111C265.842 45.8862 265.317 47.2739 265.317 49.0741C265.317 50.5742 265.879 51.8869 267.005 53.012C268.205 54.0621 269.667 54.9998 271.393 55.8248C273.118 56.5749 275.668 57.5501 279.043 58.7502C284.069 60.4754 288.195 62.2006 291.42 63.9258C294.72 65.576 297.533 67.9387 299.858 71.0141C302.259 74.0144 303.459 77.8399 303.459 82.4904C303.459 87.216 302.259 91.454 299.858 95.2044C297.533 98.9548 294.12 101.918 289.62 104.093C285.194 106.268 279.944 107.356 273.868 107.356Z" fill="#1E90FF"/>
<path d="M322.599 37.5977C318.699 37.5977 315.548 36.5476 313.148 34.4474C310.823 32.2721 309.66 29.5718 309.66 26.3464C309.66 23.0461 310.823 20.3082 313.148 18.133C315.548 15.9577 318.699 14.8701 322.599 14.8701C326.425 14.8701 329.5 15.9577 331.825 18.133C334.226 20.3082 335.426 23.0461 335.426 26.3464C335.426 29.5718 334.226 32.2721 331.825 34.4474C329.5 36.5476 326.425 37.5977 322.599 37.5977ZM333.513 43.4484V106.568H311.46V43.4484H333.513Z" fill="#1E90FF"/>
<path d="M426.293 42.8859C434.244 42.8859 440.47 45.2861 444.97 50.0867C449.546 54.8872 451.834 61.4505 451.834 69.7765V106.568H429.781V72.7018C429.781 69.3264 428.843 66.7011 426.968 64.8259C425.093 62.9507 422.543 62.0131 419.317 62.0131C416.092 62.0131 413.542 62.9507 411.666 64.8259C409.791 66.7011 408.854 69.3264 408.854 72.7018V106.568H386.801V72.7018C386.801 69.3264 385.863 66.7011 383.988 64.8259C382.188 62.9507 379.675 62.0131 376.45 62.0131C373.149 62.0131 370.562 62.9507 368.686 64.8259C366.811 66.7011 365.874 69.3264 365.874 72.7018V106.568H343.821V43.4484H365.874V51.7744C367.824 49.0741 370.337 46.9363 373.412 45.3611C376.562 43.7109 380.163 42.8859 384.213 42.8859C388.864 42.8859 392.989 43.8985 396.59 45.9237C400.265 47.9489 403.153 50.7993 405.253 54.4747C407.503 51.0243 410.466 48.249 414.142 46.1487C417.817 43.9735 421.868 42.8859 426.293 42.8859Z" fill="#1E90FF"/>
<path d="M483.718 52.2244C485.443 49.2991 487.881 46.9738 491.031 45.2486C494.181 43.5234 497.894 42.6608 502.17 42.6608C507.196 42.6608 511.734 43.9735 515.784 46.5988C519.909 49.2241 523.135 52.9745 525.46 57.8501C527.86 62.7256 529.061 68.4263 529.061 74.9521C529.061 81.4778 527.86 87.216 525.46 92.1665C523.135 97.0421 519.909 100.793 515.784 103.418C511.734 106.043 507.196 107.356 502.17 107.356C497.894 107.356 494.181 106.493 491.031 104.768C487.956 103.043 485.518 100.718 483.718 97.7922V136.722H461.665V43.4484H483.718V52.2244ZM506.67 74.9521C506.67 70.8266 505.545 67.6387 503.295 65.3885C501.12 63.0632 498.419 61.9006 495.194 61.9006C491.969 61.9006 489.231 63.0632 486.981 65.3885C484.805 67.7137 483.718 70.9016 483.718 74.9521C483.718 79.0775 484.805 82.3029 486.981 84.6282C489.231 86.9534 491.969 88.1161 495.194 88.1161C498.419 88.1161 501.12 86.9534 503.295 84.6282C505.545 82.2279 506.67 79.0025 506.67 74.9521Z" fill="#1E90FF"/>
<path d="M557.941 23.3086V106.568H535.889V23.3086H557.941Z" fill="#1E90FF"/>
<path d="M579.388 37.5977C575.488 37.5977 572.337 36.5476 569.937 34.4474C567.612 32.2721 566.449 29.5718 566.449 26.3464C566.449 23.0461 567.612 20.3082 569.937 18.133C572.337 15.9577 575.488 14.8701 579.388 14.8701C583.214 14.8701 586.289 15.9577 588.614 18.133C591.014 20.3082 592.215 23.0461 592.215 26.3464C592.215 29.5718 591.014 32.2721 588.614 34.4474C586.289 36.5476 583.214 37.5977 579.388 37.5977ZM590.302 43.4484V106.568H568.249V43.4484H590.302Z" fill="#1E90FF"/>
<path d="M630.538 107.356C621.312 107.356 613.737 105.181 607.811 100.83C601.885 96.4045 598.697 90.1038 598.247 81.9279H621.762C621.987 84.7032 622.813 86.7284 624.238 88.0036C625.663 89.2787 627.501 89.9163 629.751 89.9163C631.776 89.9163 633.426 89.4287 634.701 88.4536C636.052 87.4035 636.727 85.9783 636.727 84.1781C636.727 81.8529 635.639 80.0526 633.464 78.7775C631.289 77.5024 627.763 76.0772 622.888 74.502C617.712 72.7768 613.511 71.1266 610.286 69.5514C607.136 67.9012 604.36 65.5385 601.96 62.4631C599.635 59.3127 598.472 55.2248 598.472 50.1992C598.472 45.0986 599.747 40.7481 602.298 37.1477C604.848 33.4723 608.373 30.6969 612.874 28.8217C617.374 26.9465 622.475 26.0089 628.176 26.0089C637.402 26.0089 644.753 28.1842 650.228 32.5347C655.779 36.8102 658.742 42.8484 659.117 50.6493H635.151C635.076 48.249 634.326 46.4488 632.901 45.2486C631.551 44.0485 629.788 43.4484 627.613 43.4484C625.963 43.4484 624.613 43.936 623.563 44.9111C622.512 45.8862 621.987 47.2739 621.987 49.0741C621.987 50.5742 622.55 51.8869 623.675 53.012C624.875 54.0621 626.338 54.9998 628.063 55.8248C629.788 56.5749 632.339 57.5501 635.714 58.7502C640.74 60.4754 644.865 62.2006 648.09 63.9258C651.391 65.576 654.204 67.9387 656.529 71.0141C658.929 74.0144 660.129 77.8399 660.129 82.4904C660.129 87.216 658.929 91.454 656.529 95.2044C654.204 98.9548 650.791 101.918 646.29 104.093C641.865 106.268 636.614 107.356 630.538 107.356Z" fill="#1E90FF"/>
<path d="M750.603 42.8859C758.554 42.8859 764.78 45.2861 769.28 50.0867C773.856 54.8872 776.143 61.4505 776.143 69.7765V106.568H754.091V72.7018C754.091 69.3264 753.153 66.7011 751.278 64.8259C749.403 62.9507 746.853 62.0131 743.627 62.0131C740.402 62.0131 737.851 62.9507 735.976 64.8259C734.101 66.7011 733.163 69.3264 733.163 72.7018V106.568H711.111V72.7018C711.111 69.3264 710.173 66.7011 708.298 64.8259C706.498 62.9507 703.985 62.0131 700.76 62.0131C697.459 62.0131 694.872 62.9507 692.996 64.8259C691.121 66.7011 690.183 69.3264 690.183 72.7018V106.568H668.131V43.4484H690.183V51.7744C692.134 49.0741 694.647 46.9363 697.722 45.3611C700.872 43.7109 704.473 42.8859 708.523 42.8859C713.174 42.8859 717.299 43.8985 720.9 45.9237C724.575 47.9489 727.463 50.7993 729.563 54.4747C731.813 51.0243 734.776 48.249 738.452 46.1487C742.127 43.9735 746.177 42.8859 750.603 42.8859Z" fill="#1E90FF"/>
<path d="M782.375 74.9521C782.375 68.4263 783.537 62.7256 785.863 57.8501C788.263 52.9745 791.488 49.2241 795.539 46.5988C799.664 43.9735 804.24 42.6608 809.265 42.6608C813.616 42.6608 817.366 43.5234 820.517 45.2486C823.667 46.9738 826.105 49.2991 827.83 52.2244V43.4484H849.882V106.568H827.83V97.7922C826.105 100.718 823.629 103.043 820.404 104.768C817.254 106.493 813.541 107.356 809.265 107.356C804.24 107.356 799.664 106.043 795.539 103.418C791.488 100.793 788.263 97.0421 785.863 92.1665C783.537 87.216 782.375 81.4778 782.375 74.9521ZM827.83 74.9521C827.83 70.9016 826.705 67.7137 824.455 65.3885C822.279 63.0632 819.579 61.9006 816.354 61.9006C813.053 61.9006 810.315 63.0632 808.14 65.3885C805.965 67.6387 804.877 70.8266 804.877 74.9521C804.877 79.0025 805.965 82.2279 808.14 84.6282C810.315 86.9534 813.053 88.1161 816.354 88.1161C819.579 88.1161 822.279 86.9534 824.455 84.6282C826.705 82.3029 827.83 79.0775 827.83 74.9521Z" fill="#1E90FF"/>
<path d="M882.251 54.5872C884.726 50.9868 887.727 48.1365 891.252 46.0362C894.778 43.936 898.565 42.8859 902.616 42.8859V66.4011H896.428C891.627 66.4011 888.064 67.3387 885.739 69.2139C883.414 71.0891 882.251 74.352 882.251 79.0025V106.568H860.199V43.4484H882.251V54.5872Z" fill="#1E90FF"/>
<path d="M945.513 87.7785V106.568H935.95C919.823 106.568 911.759 98.5798 911.759 82.6029V61.788H903.996V43.4484H911.759V28.1467H933.924V43.4484H945.401V61.788H933.924V82.9405C933.924 84.6657 934.299 85.9033 935.05 86.6534C935.875 87.4035 937.225 87.7785 939.1 87.7785H945.513Z" fill="#1E90FF"/>
</svg>
